<mxfile host="app.diagrams.net" modified="2020-05-27T18:53:31.007Z" agent="Mozilla/5.0 (Macintosh; Intel Mac OS X 10_15_4) AppleWebKit/537.36 (KHTML, like Gecko) Chrome/81.0.4044.138 Safari/537.36" etag="bMOUQJNQ46g0SNync0fC" version="12.9.2" type="github">
  <diagram id="6a731a19-8d31-9384-78a2-239565b7b9f0" name="Page-1">
    <mxGraphModel dx="2316" dy="1018" grid="1" gridSize="10" guides="1" tooltips="1" connect="1" arrows="1" fold="1" page="1" pageScale="1" pageWidth="1169" pageHeight="827" background="#ffffff" math="0" shadow="0">
      <root>
        <mxCell id="0" />
        <mxCell id="1" parent="0" />
        <mxCell id="1351" value="OpenPIV&lt;br style=&quot;font-size: 25px;&quot;&gt;Pressure&lt;br style=&quot;font-size: 25px;&quot;&gt;(Poisson)" style="ellipse;whiteSpace=wrap;html=1;shadow=0;fontFamily=Tahoma;fontSize=25;fontColor=#FFFFFF;align=center;strokeWidth=3;fillColor=#F08705;strokeColor=none;gradientColor=none;fontStyle=1" parent="1" vertex="1">
          <mxGeometry x="973" y="340" width="246" height="235" as="geometry" />
        </mxCell>
        <mxCell id="1352" value="OpenPIV&lt;br style=&quot;font-size: 25px;&quot;&gt;Proper&lt;br style=&quot;font-size: 25px;&quot;&gt;Orthogonal&lt;br style=&quot;font-size: 25px;&quot;&gt;Decomposition&lt;br style=&quot;font-size: 25px;&quot;&gt;(POD)" style="ellipse;whiteSpace=wrap;html=1;shadow=0;fontFamily=Tahoma;fontSize=25;fontColor=#FFFFFF;align=center;strokeWidth=3;fillColor=#E85642;strokeColor=none;fontStyle=1" parent="1" vertex="1">
          <mxGeometry x="1315.79" y="482" width="264.21" height="253.75" as="geometry" />
        </mxCell>
        <mxCell id="1353" value="OpenPIV&lt;br style=&quot;font-size: 25px&quot;&gt;WakeGUI&lt;br style=&quot;font-size: 25px&quot;&gt;(wake and force analysis)" style="ellipse;whiteSpace=wrap;html=1;shadow=0;fontFamily=Tahoma;fontSize=25;align=center;strokeWidth=3;fillColor=#647687;strokeColor=#314354;fontColor=#ffffff;fontStyle=1" parent="1" vertex="1">
          <mxGeometry x="1305.01" y="863.25" width="243.5" height="243.5" as="geometry" />
        </mxCell>
        <mxCell id="1354" value="OpenPIV&lt;br style=&quot;font-size: 25px;&quot;&gt;Python&lt;br style=&quot;font-size: 25px;&quot;&gt;C++" style="ellipse;whiteSpace=wrap;html=1;shadow=0;fontFamily=Tahoma;fontSize=25;align=center;strokeWidth=3;fillColor=#f5f5f5;strokeColor=#666666;gradientColor=#b3b3b3;fontStyle=1" parent="1" vertex="1">
          <mxGeometry x="984" y="1290" width="240" height="240" as="geometry" />
        </mxCell>
        <mxCell id="1360" style="endArrow=none;strokeWidth=6;strokeColor=#f08705;html=1;fontStyle=1;fontFamily=Tahoma;fontSize=25;" parent="1" source="1515" target="1351" edge="1">
          <mxGeometry relative="1" as="geometry" />
        </mxCell>
        <mxCell id="1361" style="endArrow=none;strokeWidth=6;strokeColor=#E85642;html=1;fontStyle=1;fontFamily=Tahoma;fontSize=25;" parent="1" source="1515" target="1352" edge="1">
          <mxGeometry relative="1" as="geometry" />
        </mxCell>
        <mxCell id="1362" style="endArrow=none;strokeWidth=6;strokeColor=#314354;html=1;fillColor=#647687;fontStyle=1;fontFamily=Tahoma;fontSize=25;" parent="1" source="1515" target="1353" edge="1">
          <mxGeometry relative="1" as="geometry" />
        </mxCell>
        <mxCell id="1363" style="endArrow=none;strokeWidth=6;strokeColor=#736CA8;html=1;fontStyle=1;fontFamily=Tahoma;fontSize=25;" parent="1" source="1515" target="1516" edge="1">
          <mxGeometry relative="1" as="geometry" />
        </mxCell>
        <mxCell id="1364" style="endArrow=classic;strokeWidth=6;strokeColor=#666666;html=1;gradientColor=#b3b3b3;fillColor=#f5f5f5;fontStyle=1;fontFamily=Tahoma;fontSize=25;endFill=0;" parent="1" source="1515" target="1354" edge="1">
          <mxGeometry relative="1" as="geometry" />
        </mxCell>
        <mxCell id="1515" value="OpenPIV&lt;br style=&quot;font-size: 25px;&quot;&gt;Matlab" style="ellipse;whiteSpace=wrap;html=1;shadow=0;fontFamily=Tahoma;fontSize=25;fontColor=#2F5B7C;align=center;strokeColor=#2F5B7C;strokeWidth=6;fillColor=#FFFFFF;fontStyle=1;gradientColor=none;" parent="1" vertex="1">
          <mxGeometry x="961" y="676.5" width="270" height="270" as="geometry" />
        </mxCell>
        <mxCell id="1516" value="OpenPIV&lt;br style=&quot;font-size: 25px;&quot;&gt;Spatial and&amp;nbsp;&lt;br style=&quot;font-size: 25px;&quot;&gt;Temporal&amp;nbsp;&lt;br style=&quot;font-size: 25px;&quot;&gt;Analysis&lt;br style=&quot;font-size: 25px;&quot;&gt;Toolbox" style="ellipse;whiteSpace=wrap;html=1;shadow=0;fontFamily=Tahoma;fontSize=25;fontColor=#FFFFFF;align=center;strokeWidth=3;fillColor=#736ca8;strokeColor=none;fontStyle=1" parent="1" vertex="1">
          <mxGeometry x="650" y="870" width="240" height="230" as="geometry" />
        </mxCell>
        <mxCell id="1350" value="OpenPIV&lt;br style=&quot;font-size: 25px;&quot;&gt;Background&lt;br style=&quot;font-size: 25px;&quot;&gt;Oriented&lt;br style=&quot;font-size: 25px;&quot;&gt;Schlieren&lt;br style=&quot;font-size: 25px;&quot;&gt;(BOS)" style="ellipse;whiteSpace=wrap;html=1;shadow=0;fontFamily=Tahoma;fontSize=25;fontColor=#FFFFFF;align=center;strokeWidth=3;fillColor=#1699D3;strokeColor=none;fontStyle=1" parent="1" vertex="1">
          <mxGeometry x="650" y="520" width="221.5" height="221.5" as="geometry" />
        </mxCell>
        <mxCell id="OUzuYK2X_hW6qibeQStF-1544" style="endArrow=none;strokeWidth=6;strokeColor=#006EAF;html=1;fillColor=#1ba1e2;entryX=0.907;entryY=0.792;entryDx=0;entryDy=0;entryPerimeter=0;fontStyle=1;fontFamily=Tahoma;fontSize=25;" edge="1" parent="1" source="1515" target="1350">
          <mxGeometry relative="1" as="geometry">
            <mxPoint x="1004.2799157477289" y="712.4423090075468" as="sourcePoint" />
            <mxPoint x="602" y="420" as="targetPoint" />
          </mxGeometry>
        </mxCell>
        <mxCell id="OUzuYK2X_hW6qibeQStF-1546" value="OpenPIV&lt;br style=&quot;font-size: 25px&quot;&gt;TK GUI&lt;br style=&quot;font-size: 25px&quot;&gt;Qt5 GUI" style="ellipse;whiteSpace=wrap;html=1;shadow=0;fontFamily=Tahoma;fontSize=25;align=center;strokeWidth=3;fillColor=#f5f5f5;strokeColor=#666666;gradientColor=#b3b3b3;fontStyle=1" vertex="1" parent="1">
          <mxGeometry x="800" y="1130" width="210" height="210" as="geometry" />
        </mxCell>
        <mxCell id="OUzuYK2X_hW6qibeQStF-1547" value="OpenPIV&lt;br style=&quot;font-size: 25px&quot;&gt;Python + GPU" style="ellipse;whiteSpace=wrap;html=1;shadow=0;fontFamily=Tahoma;fontSize=25;align=center;strokeWidth=3;fillColor=#f5f5f5;strokeColor=#666666;gradientColor=#b3b3b3;fontStyle=1" vertex="1" parent="1">
          <mxGeometry x="800" y="1500" width="210" height="210" as="geometry" />
        </mxCell>
        <mxCell id="OUzuYK2X_hW6qibeQStF-1548" value="OpenPIV&lt;br style=&quot;font-size: 25px&quot;&gt;Real Time" style="ellipse;whiteSpace=wrap;html=1;shadow=0;fontFamily=Tahoma;fontSize=25;align=center;strokeWidth=3;fillColor=#f5f5f5;strokeColor=#666666;gradientColor=#b3b3b3;fontStyle=1" vertex="1" parent="1">
          <mxGeometry x="1200" y="1500" width="210" height="210" as="geometry" />
        </mxCell>
        <mxCell id="OUzuYK2X_hW6qibeQStF-1549" value="OpenPIV&lt;br style=&quot;font-size: 25px&quot;&gt;SaaS&lt;br&gt;Cloud" style="ellipse;whiteSpace=wrap;html=1;shadow=0;fontFamily=Tahoma;fontSize=25;align=center;strokeWidth=3;fillColor=#f5f5f5;strokeColor=#666666;gradientColor=#b3b3b3;fontStyle=1" vertex="1" parent="1">
          <mxGeometry x="1208" y="1136" width="210" height="210" as="geometry" />
        </mxCell>
        <mxCell id="OUzuYK2X_hW6qibeQStF-1553" style="endArrow=none;strokeWidth=6;strokeColor=#314354;html=1;fillColor=#647687;fontStyle=1;fontFamily=Tahoma;fontSize=25;entryX=0.095;entryY=0.8;entryDx=0;entryDy=0;exitX=1;exitY=0;exitDx=0;exitDy=0;entryPerimeter=0;" edge="1" parent="1" source="1354" target="OUzuYK2X_hW6qibeQStF-1549">
          <mxGeometry relative="1" as="geometry">
            <mxPoint x="1226.0484067503821" y="1327.8471333697312" as="sourcePoint" />
            <mxPoint x="1300.7537879754127" y="1360.7537879754127" as="targetPoint" />
          </mxGeometry>
        </mxCell>
        <mxCell id="OUzuYK2X_hW6qibeQStF-1554" style="endArrow=none;strokeWidth=6;strokeColor=#314354;html=1;fillColor=#647687;fontStyle=1;fontFamily=Tahoma;fontSize=25;entryX=0;entryY=0;entryDx=0;entryDy=0;exitX=1;exitY=1;exitDx=0;exitDy=0;" edge="1" parent="1" source="1354" target="OUzuYK2X_hW6qibeQStF-1548">
          <mxGeometry relative="1" as="geometry">
            <mxPoint x="1220" y="1476" as="sourcePoint" />
            <mxPoint x="1310.7537879754127" y="1370.7537879754127" as="targetPoint" />
          </mxGeometry>
        </mxCell>
        <mxCell id="OUzuYK2X_hW6qibeQStF-1555" style="endArrow=none;strokeWidth=6;strokeColor=#314354;html=1;fillColor=#647687;fontStyle=1;fontFamily=Tahoma;fontSize=25;entryX=1;entryY=0;entryDx=0;entryDy=0;exitX=0;exitY=1;exitDx=0;exitDy=0;" edge="1" parent="1" source="1354" target="OUzuYK2X_hW6qibeQStF-1547">
          <mxGeometry relative="1" as="geometry">
            <mxPoint x="1246.0484067503821" y="1347.8471333697312" as="sourcePoint" />
            <mxPoint x="1320.7537879754127" y="1380.7537879754127" as="targetPoint" />
          </mxGeometry>
        </mxCell>
        <mxCell id="OUzuYK2X_hW6qibeQStF-1556" style="endArrow=none;strokeWidth=6;strokeColor=#314354;html=1;fillColor=#647687;fontStyle=1;fontFamily=Tahoma;fontSize=25;entryX=1;entryY=1;entryDx=0;entryDy=0;exitX=0;exitY=0;exitDx=0;exitDy=0;" edge="1" parent="1" source="1354" target="OUzuYK2X_hW6qibeQStF-1546">
          <mxGeometry relative="1" as="geometry">
            <mxPoint x="1256.0484067503821" y="1357.8471333697312" as="sourcePoint" />
            <mxPoint x="1330.7537879754127" y="1390.7537879754127" as="targetPoint" />
          </mxGeometry>
        </mxCell>
      </root>
    </mxGraphModel>
  </diagram>
</mxfile>
